STARTFONT 2.1
FONT -Monotype-Bembo-Bold-I-Normal--18-180-72-72-P-98-iso8859-1
SIZE 18 72 72
FONTBOUNDINGBOX 27 21 -5 -4

STARTPROPERTIES 22
FOUNDRY "Monotype"
FAMILY_NAME "Bembo"
WEIGHT_NAME "Bold"
SLANT "I"
SETWIDTH_NAME "Normal"
ADD_STYLE_NAME ""
PIXEL_SIZE 18
POINT_SIZE 180
RESOLUTION_X 72
RESOLUTION_Y 72
SPACING "P"
AVERAGE_WIDTH 98
CHARSET_REGISTRY "iso8859"
CHARSET_ENCODING "1"
COPYRIGHT "Copyright (c) 1996 Monotype Typography Ltd."
CAP_HEIGHT 13
X_HEIGHT 8
WEIGHT 10
QUAD_WIDTH 12
DEFAULT_CHAR 32
FONT_DESCENT 4
FONT_ASCENT 17
ENDPROPERTIES

CHARS 191

STARTCHAR space
ENCODING 32
SWIDTH 278 0
DWIDTH 6 0
BBX 0 0 0 0
BITMAP
ENDCHAR

STARTCHAR exclam
ENCODING 33
SWIDTH 323 0
DWIDTH 6 0
BBX 6 12 1 0
BITMAP
0C
1C
18
18
18
30
30
20
00
60
E0
C0
ENDCHAR

STARTCHAR quotedbl
ENCODING 34
SWIDTH 552 0
DWIDTH 10 0
BBX 6 5 3 7
BITMAP
CC
CC
CC
44
44
ENDCHAR

STARTCHAR numbersign
ENCODING 35
SWIDTH 668 0
DWIDTH 13 0
BBX 11 12 1 0
BITMAP
18C0
18C0
18C0
FFE0
FFE0
3180
3180
FFE0
FFE0
6300
6300
6300
ENDCHAR

STARTCHAR dollar
ENCODING 36
SWIDTH 469 0
DWIDTH 9 0
BBX 8 15 1 -2
BITMAP
08
1E
2B
6B
68
70
38
1C
1E
16
D6
D6
7C
10
10
ENDCHAR

STARTCHAR percent
ENCODING 37
SWIDTH 844 0
DWIDTH 16 0
BBX 15 12 1 0
BITMAP
3830
6C60
6C40
CCC0
D880
D99C
7336
0236
0666
046C
0C6C
1838
ENDCHAR

STARTCHAR ampersand
ENCODING 38
SWIDTH 729 0
DWIDTH 14 0
BBX 13 12 1 0
BITMAP
0F00
19C0
3080
3000
3818
1C08
61F0
E260
E360
E060
70C0
3F80
ENDCHAR

STARTCHAR quoteright
ENCODING 39
SWIDTH 323 0
DWIDTH 6 0
BBX 4 6 2 6
BITMAP
30
70
70
20
40
80
ENDCHAR

STARTCHAR parenleft
ENCODING 40
SWIDTH 292 0
DWIDTH 6 0
BBX 6 16 1 -4
BITMAP
04
08
10
30
60
60
C0
C0
C0
C0
C0
C0
C0
40
60
20
ENDCHAR

STARTCHAR parenright
ENCODING 41
SWIDTH 292 0
DWIDTH 6 0
BBX 6 16 -1 -4
BITMAP
10
18
08
0C
0C
0C
0C
0C
0C
0C
18
18
30
20
40
80
ENDCHAR

STARTCHAR asterisk
ENCODING 42
SWIDTH 521 0
DWIDTH 10 0
BBX 8 8 2 4
BITMAP
0C
0C
D8
7F
3E
78
CC
04
ENDCHAR

STARTCHAR plus
ENCODING 43
SWIDTH 667 0
DWIDTH 13 0
BBX 10 10 2 1
BITMAP
0C00
0C00
0C00
0C00
FFC0
FFC0
0C00
0C00
0C00
0C00
ENDCHAR

STARTCHAR comma
ENCODING 44
SWIDTH 323 0
DWIDTH 6 0
BBX 4 6 0 -3
BITMAP
30
70
70
20
40
80
ENDCHAR

STARTCHAR minus
ENCODING 45
SWIDTH 667 0
DWIDTH 13 0
BBX 10 2 2 5
BITMAP
FFC0
FFC0
ENDCHAR

STARTCHAR period
ENCODING 46
SWIDTH 323 0
DWIDTH 6 0
BBX 3 3 1 0
BITMAP
60
E0
C0
ENDCHAR

STARTCHAR slash
ENCODING 47
SWIDTH 531 0
DWIDTH 10 0
BBX 8 13 1 -1
BITMAP
03
06
06
0C
0C
18
18
30
30
60
60
C0
C0
ENDCHAR

STARTCHAR zero
ENCODING 48
SWIDTH 469 0
DWIDTH 9 0
BBX 9 12 0 0
BITMAP
0F00
3B80
3380
7380
7380
7300
6700
E700
E700
E600
EE00
7800
ENDCHAR

STARTCHAR one
ENCODING 49
SWIDTH 469 0
DWIDTH 9 0
BBX 7 12 0 0
BITMAP
0E
3E
0E
0E
1C
1C
1C
1C
38
38
38
FE
ENDCHAR

STARTCHAR two
ENCODING 50
SWIDTH 469 0
DWIDTH 9 0
BBX 9 12 0 0
BITMAP
0F00
1B80
3380
0380
0300
0600
0C00
1800
3000
7E00
FE00
FE00
ENDCHAR

STARTCHAR three
ENCODING 51
SWIDTH 469 0
DWIDTH 9 0
BBX 9 12 0 0
BITMAP
0F00
1B80
1380
0300
0600
1E00
0700
0700
0700
0600
CC00
7800
ENDCHAR

STARTCHAR four
ENCODING 52
SWIDTH 469 0
DWIDTH 9 0
BBX 8 12 0 0
BITMAP
01
03
07
0F
17
2E
4E
FF
FF
1C
1C
1C
ENDCHAR

STARTCHAR five
ENCODING 53
SWIDTH 469 0
DWIDTH 9 0
BBX 9 13 0 0
BITMAP
0080
1F80
1F00
3F00
2000
3C00
3E00
0700
0700
0700
0600
CC00
7800
ENDCHAR

STARTCHAR six
ENCODING 54
SWIDTH 469 0
DWIDTH 9 0
BBX 8 12 1 0
BITMAP
03
0C
18
30
60
7C
EE
EE
EE
EE
EC
78
ENDCHAR

STARTCHAR seven
ENCODING 55
SWIDTH 469 0
DWIDTH 9 0
BBX 8 12 1 0
BITMAP
7F
FF
FE
86
04
0C
18
18
30
30
60
60
ENDCHAR

STARTCHAR eight
ENCODING 56
SWIDTH 469 0
DWIDTH 9 0
BBX 8 12 1 0
BITMAP
1E
33
73
73
76
38
3C
6E
CE
CE
CC
78
ENDCHAR

STARTCHAR nine
ENCODING 57
SWIDTH 469 0
DWIDTH 9 0
BBX 8 12 1 0
BITMAP
1E
37
77
77
77
77
3E
06
0C
18
30
C0
ENDCHAR

STARTCHAR colon
ENCODING 58
SWIDTH 323 0
DWIDTH 6 0
BBX 4 8 1 0
BITMAP
30
70
60
00
00
60
E0
C0
ENDCHAR

STARTCHAR semicolon
ENCODING 59
SWIDTH 323 0
DWIDTH 6 0
BBX 5 11 0 -3
BITMAP
18
38
30
00
00
30
70
70
20
40
80
ENDCHAR

STARTCHAR less
ENCODING 60
SWIDTH 667 0
DWIDTH 13 0
BBX 10 11 2 1
BITMAP
0040
01C0
0780
1E00
7800
E000
7800
1E00
0780
01C0
0040
ENDCHAR

STARTCHAR equal
ENCODING 61
SWIDTH 667 0
DWIDTH 13 0
BBX 10 6 2 3
BITMAP
FFC0
FFC0
0000
0000
FFC0
FFC0
ENDCHAR

STARTCHAR greater
ENCODING 62
SWIDTH 667 0
DWIDTH 13 0
BBX 10 11 2 1
BITMAP
8000
E000
7800
1E00
0780
01C0
0780
1E00
7800
E000
8000
ENDCHAR

STARTCHAR question
ENCODING 63
SWIDTH 427 0
DWIDTH 8 0
BBX 7 12 1 0
BITMAP
3C
3E
02
06
0E
1C
38
30
00
60
E0
C0
ENDCHAR

STARTCHAR at
ENCODING 64
SWIDTH 833 0
DWIDTH 16 0
BBX 16 17 1 -4
BITMAP
03E0
0E38
180C
3006
61B6
4366
C666
C666
CC66
CCCC
CCCC
CD58
CF73
6006
300C
1C38
07E0
ENDCHAR

STARTCHAR A
ENCODING 65
SWIDTH 719 0
DWIDTH 14 0
BBX 14 12 -1 0
BITMAP
0038
0078
00B8
00B8
0138
0238
07F8
0438
0838
1038
3038
F8FC
ENDCHAR

STARTCHAR B
ENCODING 66
SWIDTH 656 0
DWIDTH 12 0
BBX 13 12 -1 0
BITMAP
3FF0
0E38
0E38
0E38
1C70
1FC0
1C60
1C70
3870
3870
38E0
FFC0
ENDCHAR

STARTCHAR C
ENCODING 67
SWIDTH 729 0
DWIDTH 14 0
BBX 12 12 1 0
BITMAP
07F0
1C30
3810
7000
7000
E000
E000
E000
E000
E040
70C0
3F80
ENDCHAR

STARTCHAR D
ENCODING 68
SWIDTH 802 0
DWIDTH 15 0
BBX 15 12 -1 0
BITMAP
3FF0
0E1C
0E0C
0E0E
1C0E
1C0E
1C0E
1C0E
381C
381C
3838
FFE0
ENDCHAR

STARTCHAR E
ENCODING 69
SWIDTH 656 0
DWIDTH 12 0
BBX 13 12 -1 0
BITMAP
3FF8
0E18
0E08
0E00
1C20
1FE0
1C40
1C40
3800
3810
3830
FFE0
ENDCHAR

STARTCHAR F
ENCODING 70
SWIDTH 604 0
DWIDTH 11 0
BBX 13 12 -1 0
BITMAP
3FF8
0E18
0E08
0E00
1C20
1FE0
1C40
1C40
3800
3800
3800
FE00
ENDCHAR

STARTCHAR G
ENCODING 71
SWIDTH 802 0
DWIDTH 15 0
BBX 13 12 1 0
BITMAP
07F0
1C30
3810
7000
7000
E000
E000
E0F8
E070
E070
70E0
3F80
ENDCHAR

STARTCHAR H
ENCODING 72
SWIDTH 802 0
DWIDTH 15 0
BBX 17 12 -1 0
BITMAP
3FBF80
0E0E00
0E0E00
0E0E00
1C1C00
1FFC00
1C1C00
1C1C00
383800
383800
383800
FEFE00
ENDCHAR

STARTCHAR I
ENCODING 73
SWIDTH 375 0
DWIDTH 7 0
BBX 9 12 -1 0
BITMAP
3F80
0E00
0E00
0E00
1C00
1C00
1C00
1C00
3800
3800
3800
FE00
ENDCHAR

STARTCHAR J
ENCODING 74
SWIDTH 354 0
DWIDTH 7 0
BBX 11 16 -3 -4
BITMAP
0FE0
0380
0380
0380
0380
0700
0700
0700
0700
0E00
0E00
0E00
0C00
CC00
D800
7000
ENDCHAR

STARTCHAR K
ENCODING 75
SWIDTH 740 0
DWIDTH 14 0
BBX 15 12 -1 0
BITMAP
3F7E
0E30
0E20
0E40
1C80
1D80
1F80
1DC0
38E0
38E0
3870
FEFC
ENDCHAR

STARTCHAR L
ENCODING 76
SWIDTH 604 0
DWIDTH 11 0
BBX 11 12 -1 0
BITMAP
3F80
0E00
0E00
0E00
1C00
1C00
1C00
1C00
3800
3820
3860
FFC0
ENDCHAR

STARTCHAR M
ENCODING 77
SWIDTH 896 0
DWIDTH 17 0
BBX 19 12 -1 0
BITMAP
3E03E0
0E0780
0E0B80
0F0B80
171700
172700
172700
174700
278E00
238E00
230E00
FB3F80
ENDCHAR

STARTCHAR N
ENCODING 78
SWIDTH 771 0
DWIDTH 15 0
BBX 17 12 -1 0
BITMAP
3C0F80
0E0200
0F0200
0B8200
13C400
11C400
10E400
107400
207800
203800
201800
F80800
ENDCHAR

STARTCHAR O
ENCODING 79
SWIDTH 823 0
DWIDTH 16 0
BBX 14 12 1 0
BITMAP
07F0
1C38
381C
701C
701C
E01C
E01C
E038
E038
E070
70E0
3F80
ENDCHAR

STARTCHAR P
ENCODING 80
SWIDTH 635 0
DWIDTH 12 0
BBX 13 12 -1 0
BITMAP
3FE0
0E70
0E38
0E38
1C38
1C70
1C60
1D80
3800
3800
3800
FE00
ENDCHAR

STARTCHAR Q
ENCODING 81
SWIDTH 823 0
DWIDTH 16 0
BBX 14 15 1 -3
BITMAP
07F0
1C38
381C
701C
701C
E01C
E01C
E038
E038
E070
70E0
3F80
0780
03E0
00F8
ENDCHAR

STARTCHAR R
ENCODING 82
SWIDTH 688 0
DWIDTH 13 0
BBX 14 12 -1 0
BITMAP
3FE0
0E70
0E38
0E38
1C38
1C70
1FC0
1DC0
38E0
3860
3870
FE3C
ENDCHAR

STARTCHAR S
ENCODING 83
SWIDTH 521 0
DWIDTH 10 0
BBX 9 12 1 0
BITMAP
1F80
3180
7080
7000
7800
3C00
1E00
0F00
0700
8700
C600
FC00
ENDCHAR

STARTCHAR T
ENCODING 84
SWIDTH 698 0
DWIDTH 13 0
BBX 13 13 1 0
BITMAP
4008
7FF8
C710
8710
0700
0E00
0E00
0E00
0E00
1C00
1C00
1C00
7F00
ENDCHAR

STARTCHAR U
ENCODING 85
SWIDTH 750 0
DWIDTH 14 0
BBX 14 12 1 0
BITMAP
FE7C
3810
3810
3810
7020
7020
7020
7020
E040
E040
7080
3F00
ENDCHAR

STARTCHAR V
ENCODING 86
SWIDTH 677 0
DWIDTH 13 0
BBX 15 12 0 0
BITMAP
FE7E
3818
3810
3820
3840
3880
3900
3900
3A00
3C00
3800
3000
ENDCHAR

STARTCHAR W
ENCODING 87
SWIDTH 1063 0
DWIDTH 20 0
BBX 22 12 0 0
BITMAP
FEFEFC
383830
383820
387840
38B880
38B880
393900
3A3A00
3A3A00
3C3C00
383800
303000
ENDCHAR

STARTCHAR X
ENCODING 88
SWIDTH 760 0
DWIDTH 14 0
BBX 15 12 -1 0
BITMAP
3FBE
0E18
0730
0760
03C0
0380
03C0
07C0
0CE0
18E0
3070
F9FC
ENDCHAR

STARTCHAR Y
ENCODING 89
SWIDTH 667 0
DWIDTH 13 0
BBX 14 12 0 0
BITMAP
FE7C
3830
3820
1C40
1C80
0F00
0E00
0E00
1C00
1C00
1C00
7F00
ENDCHAR

STARTCHAR Z
ENCODING 90
SWIDTH 667 0
DWIDTH 13 0
BBX 14 12 0 0
BITMAP
1FFC
1838
1070
00E0
01C0
0380
0700
0E00
1C10
3810
7030
FFF0
ENDCHAR

STARTCHAR bracketleft
ENCODING 91
SWIDTH 365 0
DWIDTH 7 0
BBX 8 16 0 -4
BITMAP
1F
1C
1C
1C
38
38
38
38
70
70
70
70
E0
E0
E0
F8
ENDCHAR

STARTCHAR backslash
ENCODING 92
SWIDTH 302 0
DWIDTH 6 0
BBX 5 13 1 -1
BITMAP
C0
C0
C0
60
60
60
60
30
30
30
18
18
18
ENDCHAR

STARTCHAR bracketright
ENCODING 93
SWIDTH 365 0
DWIDTH 7 0
BBX 8 16 -1 -4
BITMAP
1F
07
07
07
0E
0E
0E
0E
1C
1C
1C
1C
38
38
38
F8
ENDCHAR

STARTCHAR asciicircum
ENCODING 94
SWIDTH 573 0
DWIDTH 11 0
BBX 7 7 2 6
BITMAP
10
38
28
6C
44
C6
82
ENDCHAR

STARTCHAR underscore
ENCODING 95
SWIDTH 500 0
DWIDTH 10 0
BBX 10 2 0 -3
BITMAP
FFC0
FFC0
ENDCHAR

STARTCHAR quoteleft
ENCODING 96
SWIDTH 323 0
DWIDTH 6 0
BBX 3 6 2 6
BITMAP
20
40
80
E0
E0
C0
ENDCHAR

STARTCHAR a
ENCODING 97
SWIDTH 458 0
DWIDTH 9 0
BBX 9 8 0 0
BITMAP
0F00
3700
6700
6700
EE00
EE00
F680
6700
ENDCHAR

STARTCHAR b
ENCODING 98
SWIDTH 448 0
DWIDTH 9 0
BBX 8 13 0 0
BITMAP
18
78
38
38
38
76
7F
77
77
E6
E6
EC
78
ENDCHAR

STARTCHAR c
ENCODING 99
SWIDTH 333 0
DWIDTH 6 0
BBX 6 8 0 0
BITMAP
1C
74
70
E0
E0
E0
E8
70
ENDCHAR

STARTCHAR d
ENCODING 100
SWIDTH 448 0
DWIDTH 9 0
BBX 9 13 -1 0
BITMAP
0180
0780
0380
0380
0700
1F00
3700
6700
6700
EE00
EE00
F680
6700
ENDCHAR

STARTCHAR e
ENCODING 101
SWIDTH 375 0
DWIDTH 7 0
BBX 6 8 0 0
BITMAP
18
2C
6C
68
F0
E0
E8
70
ENDCHAR

STARTCHAR f
ENCODING 102
SWIDTH 271 0
DWIDTH 5 0
BBX 13 17 -5 -4
BITMAP
0078
00D8
0180
0180
0380
0FE0
0380
0380
0700
0700
0700
0600
0600
0C00
CC00
D800
7000
ENDCHAR

STARTCHAR g
ENCODING 103
SWIDTH 438 0
DWIDTH 8 0
BBX 10 12 -2 -4
BITMAP
07C0
1B80
3B80
3B80
3B00
1E00
1800
3C00
5E00
C700
E300
7E00
ENDCHAR

STARTCHAR h
ENCODING 104
SWIDTH 500 0
DWIDTH 10 0
BBX 10 13 0 0
BITMAP
1800
7800
3800
3800
3800
7700
7B80
7380
7380
E700
E700
E740
E380
ENDCHAR

STARTCHAR i
ENCODING 105
SWIDTH 292 0
DWIDTH 6 0
BBX 6 12 -1 0
BITMAP
0C
1C
18
00
78
B8
38
38
70
70
74
78
ENDCHAR

STARTCHAR j
ENCODING 106
SWIDTH 271 0
DWIDTH 5 0
BBX 9 16 -4 -4
BITMAP
0180
0380
0300
0000
0F00
1700
0700
0700
0E00
0E00
0E00
0E00
0C00
1C00
D800
E000
ENDCHAR

STARTCHAR k
ENCODING 107
SWIDTH 500 0
DWIDTH 10 0
BBX 10 13 0 0
BITMAP
1800
7800
3800
3800
3800
7300
7780
7980
7300
FE00
EE00
E740
E380
ENDCHAR

STARTCHAR l
ENCODING 108
SWIDTH 271 0
DWIDTH 5 0
BBX 5 13 -1 0
BITMAP
18
78
38
38
38
70
70
70
70
E0
E0
E8
F0
ENDCHAR

STARTCHAR m
ENCODING 109
SWIDTH 750 0
DWIDTH 14 0
BBX 16 8 -2 0
BITMAP
7BDC
BDEE
39CE
39CE
739C
739C
739D
739E
ENDCHAR

STARTCHAR n
ENCODING 110
SWIDTH 510 0
DWIDTH 10 0
BBX 11 8 -1 0
BITMAP
7380
BDC0
39C0
39C0
7380
7380
73A0
71C0
ENDCHAR

STARTCHAR o
ENCODING 111
SWIDTH 448 0
DWIDTH 9 0
BBX 8 8 0 0
BITMAP
1E
77
77
E7
E7
EE
EE
78
ENDCHAR

STARTCHAR p
ENCODING 112
SWIDTH 490 0
DWIDTH 9 0
BBX 10 12 -2 -4
BITMAP
3D80
5FC0
1DC0
39C0
3980
3B80
3B00
3E00
7000
7000
7000
F800
ENDCHAR

STARTCHAR q
ENCODING 113
SWIDTH 448 0
DWIDTH 9 0
BBX 8 12 0 -4
BITMAP
0F
37
67
67
EE
EE
FE
6E
1C
1C
1C
3E
ENDCHAR

STARTCHAR r
ENCODING 114
SWIDTH 333 0
DWIDTH 6 0
BBX 8 8 -2 0
BITMAP
7B
BB
3C
38
38
70
70
70
ENDCHAR

STARTCHAR s
ENCODING 115
SWIDTH 344 0
DWIDTH 7 0
BBX 7 8 0 0
BITMAP
3E
76
70
78
3C
1C
DC
F8
ENDCHAR

STARTCHAR t
ENCODING 116
SWIDTH 302 0
DWIDTH 6 0
BBX 6 11 0 0
BITMAP
08
18
38
FC
70
70
70
E0
E0
E8
70
ENDCHAR

STARTCHAR u
ENCODING 117
SWIDTH 500 0
DWIDTH 10 0
BBX 11 8 -1 0
BITMAP
79C0
B9C0
39C0
39C0
7380
7380
77A0
3BC0
ENDCHAR

STARTCHAR v
ENCODING 118
SWIDTH 427 0
DWIDTH 8 0
BBX 9 8 -1 0
BITMAP
7B80
B980
3980
3900
7200
7400
7800
7000
ENDCHAR

STARTCHAR w
ENCODING 119
SWIDTH 667 0
DWIDTH 13 0
BBX 14 8 -1 0
BITMAP
79DC
B9DC
39CC
39C8
7390
77A0
7BC0
7380
ENDCHAR

STARTCHAR x
ENCODING 120
SWIDTH 500 0
DWIDTH 10 0
BBX 11 8 -1 0
BITMAP
18E0
2DA0
0F00
0E00
0E00
1E00
B680
6300
ENDCHAR

STARTCHAR y
ENCODING 121
SWIDTH 458 0
DWIDTH 9 0
BBX 9 12 -1 -4
BITMAP
7980
B980
3980
3900
3A00
3A00
3C00
3800
3800
7000
7000
F800
ENDCHAR

STARTCHAR z
ENCODING 122
SWIDTH 490 0
DWIDTH 9 0
BBX 9 8 -1 0
BITMAP
1C80
3F00
4E00
0C00
1000
3900
7E00
9C00
ENDCHAR

STARTCHAR braceleft
ENCODING 123
SWIDTH 344 0
DWIDTH 7 0
BBX 5 17 2 -4
BITMAP
18
20
60
60
60
60
60
40
80
40
60
60
60
60
60
20
18
ENDCHAR

STARTCHAR bar
ENCODING 124
SWIDTH 566 0
DWIDTH 11 0
BBX 2 15 4 -3
BITMAP
C0
C0
C0
C0
C0
C0
C0
C0
C0
C0
C0
C0
C0
C0
C0
ENDCHAR

STARTCHAR braceright
ENCODING 125
SWIDTH 344 0
DWIDTH 7 0
BBX 5 17 1 -4
BITMAP
C0
20
30
30
30
30
30
10
08
10
30
30
30
30
30
20
C0
ENDCHAR

STARTCHAR asciitilde
ENCODING 126
SWIDTH 573 0
DWIDTH 11 0
BBX 9 3 1 4
BITMAP
7880
DD80
8F00
ENDCHAR

STARTCHAR space
ENCODING 160
SWIDTH 278 0
DWIDTH 5 0
BBX 0 0 0 0
BITMAP
ENDCHAR

STARTCHAR exclamdown
ENCODING 161
SWIDTH 323 0
DWIDTH 6 0
BBX 6 13 0 -4
BITMAP
0C
1C
18
00
10
30
30
30
60
60
60
E0
C0
ENDCHAR

STARTCHAR cent
ENCODING 162
SWIDTH 333 0
DWIDTH 6 0
BBX 6 15 0 -4
BITMAP
04
04
08
1C
2C
48
D0
D0
D0
E8
70
20
20
40
40
ENDCHAR

STARTCHAR sterling
ENCODING 163
SWIDTH 760 0
DWIDTH 14 0
BBX 14 16 0 -4
BITMAP
0038
004C
00C0
0180
0180
0300
0300
0600
0600
0C00
7F80
0C00
1830
7C30
CF20
C3C0
ENDCHAR

STARTCHAR currency
ENCODING 164
SWIDTH 667 0
DWIDTH 13 0
BBX 9 9 3 3
BITMAP
DD80
FF80
6300
C180
C180
C180
6300
FF80
DD80
ENDCHAR

STARTCHAR yen
ENCODING 165
SWIDTH 500 0
DWIDTH 10 0
BBX 14 12 0 0
BITMAP
FEFC
3830
3820
1C40
1C80
FFE0
0E00
0E00
FFC0
1C00
1C00
7F00
ENDCHAR

STARTCHAR brokenbar
ENCODING 166
SWIDTH 566 0
DWIDTH 11 0
BBX 2 16 4 -4
BITMAP
C0
C0
C0
C0
C0
C0
C0
00
00
C0
C0
C0
C0
C0
C0
C0
ENDCHAR

STARTCHAR section
ENCODING 167
SWIDTH 448 0
DWIDTH 9 0
BBX 11 17 -1 -4
BITMAP
01E0
0660
0C00
1C00
1600
3600
3300
3300
3180
1980
1980
0D80
0D00
0700
0600
CC00
F000
ENDCHAR

STARTCHAR dieresis
ENCODING 168
SWIDTH 333 0
DWIDTH 6 0
BBX 6 2 2 10
BITMAP
CC
CC
ENDCHAR

STARTCHAR copyright
ENCODING 169
SWIDTH 750 0
DWIDTH 14 0
BBX 13 13 1 0
BITMAP
0F80
38E0
6030
4790
CC98
8C08
8C08
8C08
CC98
4790
6030
38E0
0F80
ENDCHAR

STARTCHAR ordfeminine
ENCODING 170
SWIDTH 354 0
DWIDTH 7 0
BBX 5 5 2 7
BITMAP
38
58
D8
F0
D8
ENDCHAR

STARTCHAR guillemotleft
ENCODING 171
SWIDTH 427 0
DWIDTH 8 0
BBX 10 8 0 0
BITMAP
0CC0
1980
3300
6600
CC00
CC00
6600
3300
ENDCHAR

STARTCHAR logicalnot
ENCODING 172
SWIDTH 667 0
DWIDTH 13 0
BBX 10 6 2 3
BITMAP
FFC0
FFC0
00C0
00C0
00C0
00C0
ENDCHAR

STARTCHAR hyphen
ENCODING 173
SWIDTH 417 0
DWIDTH 8 0
BBX 6 2 1 3
BITMAP
FC
FC
ENDCHAR

STARTCHAR registered
ENCODING 174
SWIDTH 750 0
DWIDTH 14 0
BBX 13 13 1 0
BITMAP
0F80
38E0
6030
5F10
CD98
8D88
8F08
8D88
CD98
5DD0
6030
38E0
0F80
ENDCHAR

STARTCHAR macron
ENCODING 175
SWIDTH 333 0
DWIDTH 6 0
BBX 6 2 2 9
BITMAP
FC
FC
ENDCHAR

STARTCHAR degree
ENCODING 176
SWIDTH 396 0
DWIDTH 8 0
BBX 6 6 3 6
BITMAP
78
CC
84
84
CC
78
ENDCHAR

STARTCHAR plusminus
ENCODING 177
SWIDTH 668 0
DWIDTH 13 0
BBX 10 13 2 0
BITMAP
0C00
0C00
0C00
0C00
FFC0
FFC0
0C00
0C00
0C00
0C00
0000
FFC0
FFC0
ENDCHAR

STARTCHAR twosuperior
ENCODING 178
SWIDTH 292 0
DWIDTH 6 0
BBX 5 6 1 6
BITMAP
38
58
10
20
70
F0
ENDCHAR

STARTCHAR threesuperior
ENCODING 179
SWIDTH 292 0
DWIDTH 6 0
BBX 6 6 1 6
BITMAP
3C
0C
30
18
18
F0
ENDCHAR

STARTCHAR acute
ENCODING 180
SWIDTH 333 0
DWIDTH 6 0
BBX 5 3 1 9
BITMAP
38
70
C0
ENDCHAR

STARTCHAR mu
ENCODING 181
SWIDTH 573 0
DWIDTH 11 0
BBX 12 12 -1 -4
BITMAP
1CE0
1CE0
1CE0
1CE0
39C0
39C0
3BD0
3DE0
2000
E000
E000
E000
ENDCHAR

STARTCHAR paragraph
ENCODING 182
SWIDTH 542 0
DWIDTH 10 0
BBX 11 16 0 -4
BITMAP
3FE0
7C80
FC80
FC80
FC80
FC80
7C80
3C80
0480
0480
0480
0480
0480
0480
0480
0480
ENDCHAR

STARTCHAR periodcentered
ENCODING 183
SWIDTH 323 0
DWIDTH 6 0
BBX 3 3 2 5
BITMAP
E0
E0
E0
ENDCHAR

STARTCHAR cedilla
ENCODING 184
SWIDTH 333 0
DWIDTH 6 0
BBX 5 4 0 -4
BITMAP
60
70
38
F0
ENDCHAR

STARTCHAR onesuperior
ENCODING 185
SWIDTH 292 0
DWIDTH 6 0
BBX 4 6 2 6
BITMAP
30
70
30
60
60
F0
ENDCHAR

STARTCHAR ordmasculine
ENCODING 186
SWIDTH 333 0
DWIDTH 6 0
BBX 5 6 2 6
BITMAP
30
58
D8
D8
D0
60
ENDCHAR

STARTCHAR guillemotright
ENCODING 187
SWIDTH 427 0
DWIDTH 8 0
BBX 10 8 -1 0
BITMAP
3300
1980
0CC0
0CC0
1980
3300
6600
CC00
ENDCHAR

STARTCHAR onequarter
ENCODING 188
SWIDTH 844 0
DWIDTH 16 0
BBX 12 12 2 0
BITMAP
30C0
7080
3180
6100
6300
F600
0460
0CE0
1960
13F0
30C0
60C0
ENDCHAR

STARTCHAR onehalf
ENCODING 189
SWIDTH 844 0
DWIDTH 16 0
BBX 11 13 2 0
BITMAP
0060
30C0
7080
3180
6300
6200
F600
04E0
0D60
1840
1080
31C0
63C0
ENDCHAR

STARTCHAR threequarters
ENCODING 190
SWIDTH 844 0
DWIDTH 16 0
BBX 13 13 1 0
BITMAP
0030
3C20
0C60
30C0
1880
1980
F300
0230
0670
0CB0
09F8
1060
3060
ENDCHAR

STARTCHAR questiondown
ENCODING 191
SWIDTH 427 0
DWIDTH 8 0
BBX 7 12 1 -4
BITMAP
06
0E
0C
00
18
38
70
E0
C0
80
F8
78
ENDCHAR

STARTCHAR Agrave
ENCODING 192
SWIDTH 719 0
DWIDTH 14 0
BBX 14 17 -1 0
BITMAP
00E0
0070
0018
0000
0000
0038
0078
00B8
00B8
0138
0238
07F8
0438
0838
1038
3038
F8FC
ENDCHAR

STARTCHAR Aacute
ENCODING 193
SWIDTH 719 0
DWIDTH 14 0
BBX 15 17 -1 0
BITMAP
000E
001C
0030
0000
0000
0038
0078
00B8
00B8
0138
0238
07F8
0438
0838
1038
3038
F8FC
ENDCHAR

STARTCHAR Acircumflex
ENCODING 194
SWIDTH 719 0
DWIDTH 14 0
BBX 14 17 -1 0
BITMAP
0018
003C
006C
0000
0000
0038
0078
00B8
00B8
0138
0238
07F8
0438
0838
1038
3038
F8FC
ENDCHAR

STARTCHAR Atilde
ENCODING 195
SWIDTH 719 0
DWIDTH 14 0
BBX 16 17 -1 0
BITMAP
0039
007E
009C
0000
0000
0038
0078
00B8
00B8
0138
0238
07F8
0438
0838
1038
3038
F8FC
ENDCHAR

STARTCHAR Adieresis
ENCODING 196
SWIDTH 719 0
DWIDTH 14 0
BBX 15 16 -1 0
BITMAP
0066
0066
0000
0000
0038
0078
00B8
00B8
0138
0238
07F8
0438
0838
1038
3038
F8FC
ENDCHAR

STARTCHAR Aring
ENCODING 197
SWIDTH 719 0
DWIDTH 14 0
BBX 14 17 -1 0
BITMAP
0018
0024
0024
0018
0000
0038
0078
00B8
00B8
0138
0238
07F8
0438
0838
1038
3038
F8FC
ENDCHAR

STARTCHAR AE
ENCODING 198
SWIDTH 958 0
DWIDTH 18 0
BBX 19 12 -1 0
BITMAP
00FFE0
005C60
009C20
019C00
033880
063F80
07F900
083900
187000
307020
207060
F9FFC0
ENDCHAR

STARTCHAR Ccedilla
ENCODING 199
SWIDTH 729 0
DWIDTH 14 0
BBX 13 16 1 -4
BITMAP
07F0
1C38
3818
7000
7000
E000
E000
E000
E000
E070
70E0
3F80
0C00
0E00
0700
3E00
ENDCHAR

STARTCHAR Egrave
ENCODING 200
SWIDTH 656 0
DWIDTH 12 0
BBX 13 17 0 0
BITMAP
0700
0380
00C0
0000
0000
3FF8
0E18
0E08
0E00
1C20
1FE0
1C40
1C40
3800
3810
3830
FFE0
ENDCHAR

STARTCHAR Eacute
ENCODING 201
SWIDTH 656 0
DWIDTH 12 0
BBX 13 17 0 0
BITMAP
0070
00E0
0180
0000
0000
3FF8
0E18
0E08
0E00
1C20
1FE0
1C40
1C40
3800
3810
3830
FFE0
ENDCHAR

STARTCHAR Ecircumflex
ENCODING 202
SWIDTH 656 0
DWIDTH 12 0
BBX 13 17 0 0
BITMAP
00C0
01E0
0360
0000
0000
3FF8
0E18
0E08
0E00
1C20
1FE0
1C40
1C40
3800
3810
3830
FFE0
ENDCHAR

STARTCHAR Edieresis
ENCODING 203
SWIDTH 656 0
DWIDTH 12 0
BBX 13 16 0 0
BITMAP
0330
0330
0000
0000
3FF8
0E18
0E08
0E00
1C20
1FE0
1C40
1C40
3800
3810
3830
FFE0
ENDCHAR

STARTCHAR Igrave
ENCODING 204
SWIDTH 375 0
DWIDTH 7 0
BBX 9 17 0 0
BITMAP
1C00
0E00
0300
0000
0000
3F80
0E00
0E00
0E00
1C00
1C00
1C00
1C00
3800
3800
3800
FE00
ENDCHAR

STARTCHAR Iacute
ENCODING 205
SWIDTH 375 0
DWIDTH 7 0
BBX 9 17 0 0
BITMAP
0380
0700
0C00
0000
0000
3F80
0E00
0E00
0E00
1C00
1C00
1C00
1C00
3800
3800
3800
FE00
ENDCHAR

STARTCHAR Icircumflex
ENCODING 206
SWIDTH 375 0
DWIDTH 7 0
BBX 9 17 0 0
BITMAP
0300
0780
0D80
0000
0000
3F80
0E00
0E00
0E00
1C00
1C00
1C00
1C00
3800
3800
3800
FE00
ENDCHAR

STARTCHAR Idieresis
ENCODING 207
SWIDTH 375 0
DWIDTH 7 0
BBX 9 16 0 0
BITMAP
0D80
0D80
0000
0000
3F80
0E00
0E00
0E00
1C00
1C00
1C00
1C00
3800
3800
3800
FE00
ENDCHAR

STARTCHAR Eth
ENCODING 208
SWIDTH 802 0
DWIDTH 15 0
BBX 15 12 -1 0
BITMAP
3FF0
0E1C
0E0C
0E0E
1C0E
1C0E
7F8E
1C0E
381C
381C
3838
FFE0
ENDCHAR

STARTCHAR Ntilde
ENCODING 209
SWIDTH 771 0
DWIDTH 15 0
BBX 16 17 0 0
BITMAP
00E4
01F8
0270
0000
0000
3C1F
0E04
0E04
0F04
1788
1388
11C8
11E8
20F0
2070
2030
F810
ENDCHAR

STARTCHAR Ograve
ENCODING 210
SWIDTH 823 0
DWIDTH 16 0
BBX 14 17 1 0
BITMAP
0380
01C0
0060
0000
0000
07F0
1C38
381C
701C
701C
E01C
E01C
E038
E038
E070
70E0
3F80
ENDCHAR

STARTCHAR Oacute
ENCODING 211
SWIDTH 823 0
DWIDTH 16 0
BBX 14 17 1 0
BITMAP
0070
00E0
0180
0000
0000
07F0
1C38
381C
701C
701C
E01C
E01C
E038
E038
E070
70E0
3F80
ENDCHAR

STARTCHAR Ocircumflex
ENCODING 212
SWIDTH 823 0
DWIDTH 16 0
BBX 14 17 1 0
BITMAP
00C0
01E0
0360
0000
0000
07F0
1C38
381C
701C
701C
E01C
E01C
E038
E038
E070
70E0
3F80
ENDCHAR

STARTCHAR Otilde
ENCODING 213
SWIDTH 823 0
DWIDTH 16 0
BBX 14 17 1 0
BITMAP
00E4
01F8
0270
0000
0000
07F0
1C38
381C
701C
701C
E01C
E01C
E038
E038
E070
70E0
3F80
ENDCHAR

STARTCHAR Odieresis
ENCODING 214
SWIDTH 823 0
DWIDTH 16 0
BBX 14 16 1 0
BITMAP
0330
0330
0000
0000
07F0
1C38
381C
701C
701C
E01C
E01C
E038
E038
E070
70E0
3F80
ENDCHAR

STARTCHAR multiply
ENCODING 215
SWIDTH 667 0
DWIDTH 13 0
BBX 11 10 1 1
BITMAP
C060
60C0
3180
1B00
0E00
0E00
1B00
3180
60C0
C060
ENDCHAR

STARTCHAR Oslash
ENCODING 216
SWIDTH 823 0
DWIDTH 16 0
BBX 15 14 1 -1
BITMAP
0006
07EC
1C78
383C
707C
70DC
E19C
E31C
E638
EC38
F870
70E0
7F80
C000
ENDCHAR

STARTCHAR Ugrave
ENCODING 217
SWIDTH 750 0
DWIDTH 14 0
BBX 14 17 2 0
BITMAP
0E00
0700
0180
0000
0000
FE7C
3810
3810
3810
7020
7020
7020
7020
E040
E040
7080
3F00
ENDCHAR

STARTCHAR Uacute
ENCODING 218
SWIDTH 750 0
DWIDTH 14 0
BBX 14 17 2 0
BITMAP
01C0
0380
0600
0000
0000
FE7C
3810
3810
3810
7020
7020
7020
7020
E040
E040
7080
3F00
ENDCHAR

STARTCHAR Ucircumflex
ENCODING 219
SWIDTH 750 0
DWIDTH 14 0
BBX 14 17 2 0
BITMAP
0180
03C0
06C0
0000
0000
FE7C
3810
3810
3810
7020
7020
7020
7020
E040
E040
7080
3F00
ENDCHAR

STARTCHAR Udieresis
ENCODING 220
SWIDTH 750 0
DWIDTH 14 0
BBX 14 16 2 0
BITMAP
0CC0
0CC0
0000
0000
FE7C
3810
3810
3810
7020
7020
7020
7020
E040
E040
7080
3F00
ENDCHAR

STARTCHAR Yacute
ENCODING 221
SWIDTH 667 0
DWIDTH 13 0
BBX 14 17 1 0
BITMAP
01C0
0380
0600
0000
0000
FE7C
3830
3820
1C40
1C80
0F00
0E00
0E00
1C00
1C00
1C00
7F00
ENDCHAR

STARTCHAR Thorn
ENCODING 222
SWIDTH 635 0
DWIDTH 12 0
BBX 12 12 -1 0
BITMAP
3F80
0E00
0FC0
0E60
1C70
1C70
1C70
1CE0
38E0
3BC0
3800
FE00
ENDCHAR

STARTCHAR germandbls
ENCODING 223
SWIDTH 490 0
DWIDTH 9 0
BBX 14 17 -4 -4
BITMAP
00F8
019C
031C
031C
0738
0760
0730
0638
0E38
0E38
0E30
0E30
0EE0
1C00
1C00
D800
7000
ENDCHAR

STARTCHAR agrave
ENCODING 224
SWIDTH 458 0
DWIDTH 9 0
BBX 9 13 1 0
BITMAP
3800
1C00
0600
0000
0000
0F00
3700
6700
6700
EE00
EE00
F680
6700
ENDCHAR

STARTCHAR aacute
ENCODING 225
SWIDTH 458 0
DWIDTH 9 0
BBX 9 13 1 0
BITMAP
0380
0700
0C00
0000
0000
0F00
3700
6700
6700
EE00
EE00
F680
6700
ENDCHAR

STARTCHAR acircumflex
ENCODING 226
SWIDTH 458 0
DWIDTH 9 0
BBX 9 13 1 0
BITMAP
0300
0780
0D80
0000
0000
0F00
3700
6700
6700
EE00
EE00
F680
6700
ENDCHAR

STARTCHAR atilde
ENCODING 227
SWIDTH 458 0
DWIDTH 9 0
BBX 10 13 1 0
BITMAP
0E40
1F80
2700
0000
0000
0F00
3700
6700
6700
EE00
EE00
F680
6700
ENDCHAR

STARTCHAR adieresis
ENCODING 228
SWIDTH 458 0
DWIDTH 9 0
BBX 9 12 1 0
BITMAP
0D80
0D80
0000
0000
0F00
3700
6700
6700
EE00
EE00
F680
6700
ENDCHAR

STARTCHAR aring
ENCODING 229
SWIDTH 458 0
DWIDTH 9 0
BBX 9 13 1 0
BITMAP
0600
0900
0900
0600
0000
0F00
3700
6700
6700
EE00
EE00
F680
6700
ENDCHAR

STARTCHAR ae
ENCODING 230
SWIDTH 615 0
DWIDTH 12 0
BBX 11 8 1 0
BITMAP
0EC0
3760
6760
6740
EF80
EF00
F740
6780
ENDCHAR

STARTCHAR ccedilla
ENCODING 231
SWIDTH 333 0
DWIDTH 6 0
BBX 6 12 0 -4
BITMAP
1C
74
70
E0
E0
E0
E8
70
60
60
30
E0
ENDCHAR

STARTCHAR egrave
ENCODING 232
SWIDTH 375 0
DWIDTH 7 0
BBX 6 12 1 0
BITMAP
70
38
0C
00
18
2C
6C
68
F0
E0
E8
70
ENDCHAR

STARTCHAR eacute
ENCODING 233
SWIDTH 375 0
DWIDTH 7 0
BBX 7 12 1 0
BITMAP
0E
1C
30
00
18
2C
6C
68
F0
E0
E8
70
ENDCHAR

STARTCHAR ecircumflex
ENCODING 234
SWIDTH 375 0
DWIDTH 7 0
BBX 6 13 1 0
BITMAP
18
3C
6C
00
00
18
2C
6C
68
F0
E0
E8
70
ENDCHAR

STARTCHAR edieresis
ENCODING 235
SWIDTH 375 0
DWIDTH 7 0
BBX 6 12 1 0
BITMAP
6C
6C
00
00
18
2C
6C
68
F0
E0
E8
70
ENDCHAR

STARTCHAR igrave
ENCODING 236
SWIDTH 292 0
DWIDTH 6 0
BBX 6 13 0 0
BITMAP
70
38
0C
00
00
78
B8
38
38
70
70
74
78
ENDCHAR

STARTCHAR iacute
ENCODING 237
SWIDTH 292 0
DWIDTH 6 0
BBX 7 13 0 0
BITMAP
0E
1C
30
00
00
78
B8
38
38
70
70
74
78
ENDCHAR

STARTCHAR icircumflex
ENCODING 238
SWIDTH 292 0
DWIDTH 6 0
BBX 6 12 0 0
BITMAP
18
3C
6C
00
78
B8
38
38
70
70
74
78
ENDCHAR

STARTCHAR idieresis
ENCODING 239
SWIDTH 292 0
DWIDTH 6 0
BBX 7 12 0 0
BITMAP
36
36
00
00
78
B8
38
38
70
70
74
78
ENDCHAR

STARTCHAR eth
ENCODING 240
SWIDTH 417 0
DWIDTH 8 0
BBX 9 13 0 0
BITMAP
1880
0F00
0E00
3E00
0300
1F00
7700
7700
E700
E700
EE00
EE00
7800
ENDCHAR

STARTCHAR ntilde
ENCODING 241
SWIDTH 510 0
DWIDTH 10 0
BBX 11 13 0 0
BITMAP
0720
0FC0
1380
0000
0000
7380
BDC0
39C0
39C0
7380
7380
73A0
71C0
ENDCHAR

STARTCHAR ograve
ENCODING 242
SWIDTH 448 0
DWIDTH 9 0
BBX 8 13 1 0
BITMAP
38
1C
06
00
00
1E
77
77
E7
E7
EE
EE
78
ENDCHAR

STARTCHAR oacute
ENCODING 243
SWIDTH 448 0
DWIDTH 9 0
BBX 9 13 1 0
BITMAP
0380
0700
0C00
0000
0000
1E00
7700
7700
E700
E700
EE00
EE00
7800
ENDCHAR

STARTCHAR ocircumflex
ENCODING 244
SWIDTH 448 0
DWIDTH 9 0
BBX 8 13 1 0
BITMAP
06
0F
1B
00
00
1E
77
77
E7
E7
EE
EE
78
ENDCHAR

STARTCHAR otilde
ENCODING 245
SWIDTH 448 0
DWIDTH 9 0
BBX 10 13 1 0
BITMAP
0E40
1F80
2700
0000
0000
1E00
7700
7700
E700
E700
EE00
EE00
7800
ENDCHAR

STARTCHAR odieresis
ENCODING 246
SWIDTH 448 0
DWIDTH 9 0
BBX 8 12 1 0
BITMAP
1B
1B
00
00
1E
77
77
E7
E7
EE
EE
78
ENDCHAR

STARTCHAR divide
ENCODING 247
SWIDTH 668 0
DWIDTH 13 0
BBX 10 10 2 1
BITMAP
0C00
0C00
0000
0000
FFC0
FFC0
0000
0000
0C00
0C00
ENDCHAR

STARTCHAR oslash
ENCODING 248
SWIDTH 448 0
DWIDTH 9 0
BBX 8 12 0 -2
BITMAP
01
02
1F
77
77
EF
F7
EE
EE
78
80
80
ENDCHAR

STARTCHAR ugrave
ENCODING 249
SWIDTH 500 0
DWIDTH 10 0
BBX 11 13 0 0
BITMAP
3800
1C00
0600
0000
0000
79C0
B9C0
39C0
39C0
7380
7380
77A0
3BC0
ENDCHAR

STARTCHAR uacute
ENCODING 250
SWIDTH 500 0
DWIDTH 10 0
BBX 11 13 0 0
BITMAP
0380
0700
0C00
0000
0000
79C0
B9C0
39C0
39C0
7380
7380
77A0
3BC0
ENDCHAR

STARTCHAR ucircumflex
ENCODING 251
SWIDTH 500 0
DWIDTH 10 0
BBX 11 13 0 0
BITMAP
0300
0780
0D80
0000
0000
79C0
B9C0
39C0
39C0
7380
7380
77A0
3BC0
ENDCHAR

STARTCHAR udieresis
ENCODING 252
SWIDTH 500 0
DWIDTH 10 0
BBX 11 12 0 0
BITMAP
1980
1980
0000
0000
79C0
B9C0
39C0
39C0
7380
7380
77A0
3BC0
ENDCHAR

STARTCHAR yacute
ENCODING 253
SWIDTH 458 0
DWIDTH 9 0
BBX 9 17 0 -4
BITMAP
0380
0700
0C00
0000
0000
7980
B980
3980
3900
3A00
3A00
3C00
3800
3800
7000
7000
F800
ENDCHAR

STARTCHAR thorn
ENCODING 254
SWIDTH 490 0
DWIDTH 9 0
BBX 10 17 -1 -4
BITMAP
0600
1E00
0E00
0E00
1C00
1D80
1FC0
1DC0
39C0
39C0
3B80
3B80
3E00
7000
7000
7000
F800
ENDCHAR

STARTCHAR ydieresis
ENCODING 255
SWIDTH 458 0
DWIDTH 9 0
BBX 9 16 0 -4
BITMAP
1980
1980
0000
0000
7980
B980
3980
3900
3A00
3A00
3C00
3800
3800
7000
7000
F800
ENDCHAR
ENDFONT
